<?xml version="1.0" encoding="UTF-8" standalone="no"?>
<!DOCTYPE svg PUBLIC "-//W3C//DTD SVG 1.1//EN" "http://www.w3.org/Graphics/SVG/1.1/DTD/svg11.dtd">
<!-- Created with Vectornator (http://vectornator.io/) -->
<svg height="100%" stroke-miterlimit="10" style="fill-rule:nonzero;clip-rule:evenodd;stroke-linecap:round;stroke-linejoin:round;" version="1.1" viewBox="0 0 792 612" width="100%" xml:space="preserve" xmlns="http://www.w3.org/2000/svg" xmlns:vectornator="http://vectornator.io" xmlns:xlink="http://www.w3.org/1999/xlink">
<defs/>
<g id="text" vectornator:layerName="text">
<path d="M44.4062 39.0938C44.3738 39.0775 39.4276 45.1173 36.75 49C34.0721 52.8828 33.7101 53.1949 33.6875 54.625C33.6536 56.762 35.0312 58.0625 35.0312 58.0625L41.2188 64.4688L47.7188 64.4688L55.5625 64.4688L62.0938 64.4688L68.2812 58.0625C68.2812 58.0625 69.6276 56.762 69.5938 54.625C69.5712 53.1949 69.2091 52.8828 66.5312 49C63.8537 45.1173 58.9074 39.0775 58.875 39.0938L44.4062 39.0938ZM107.906 39.1875C107.716 39.1875 107.534 39.2171 107.344 39.2188L107.344 57.3438C107.461 57.3429 107.57 57.3125 107.688 57.3125L724.438 57.3125C750.209 57.3125 771.094 78.2284 771.094 104L771.094 516.344C771.094 542.115 750.209 563 724.438 563L107.688 563C81.9159 563 61.0313 542.115 61.0312 516.344L61.0312 496.844L69.0312 496.844C69.1626 496.848 69.2736 496.906 69.4062 496.906C74.7569 496.906 79.0938 493.424 79.0938 489.125C79.0938 489.081 79.0634 489.044 79.0625 489L79.0625 481.062C90.938 476.381 99.375 464.848 99.375 451.281C99.375 450.95 99.2912 450.642 99.2812 450.312L99.2812 238.375L4 238.375L4 450.062C3.99119 450.372 3.90625 450.657 3.90625 450.969C3.90625 464.534 12.3366 476.067 24.2188 480.75L24.2188 489C24.2178 489.044 24.1875 489.081 24.1875 489.125C24.1875 493.424 28.5244 496.906 33.875 496.906C34.0077 496.906 34.1186 496.848 34.25 496.844L42.9062 496.844L42.9062 516C42.9062 551.899 72.0077 581 107.906 581L724.062 581C759.961 581 789.062 551.899 789.062 516L789.062 104.188C789.063 68.289 759.961 39.1875 724.062 39.1875L107.906 39.1875ZM39.9062 69.25L32.4062 76.25L32.4062 89.5938L71.2812 89.5938L71.2812 76.6562L63.3438 69.25L39.9062 69.25ZM32.4062 95.7188L32.4062 197.469C26.3308 199.361 21.8728 204.926 21.5312 211.656L21.4688 211.656L21.4688 212.156C21.4667 212.262 21.4375 212.362 21.4375 212.469C21.4375 212.576 21.4666 212.674 21.4688 212.781L21.4688 231.344L81.8125 231.344L81.8125 212.781C81.8146 212.674 81.8438 212.576 81.8438 212.469C81.8438 212.362 81.8146 212.262 81.8125 212.156L81.8125 211.656L81.75 211.656C81.4158 205.071 77.1565 199.602 71.2812 197.594L71.2812 95.7188L32.4062 95.7188ZM177.531 98.9375L177.531 240.531L231.438 240.531C250.178 240.531 262.575 239.691 268.625 238C274.675 236.309 279.077 233.137 281.844 228.531C284.611 223.925 286 216.843 286 207.281L286 194.188C286 184.976 284.087 178.116 280.25 173.656C276.413 169.196 269.084 166.018 258.312 164.094C267.978 162.345 274.467 159.827 277.75 156.562C281.033 153.298 282.688 147.529 282.688 139.25C282.687 127.007 280.336 118.134 275.688 112.625C271.039 107.116 264.938 103.464 257.375 101.656C249.813 99.8488 238.714 98.9375 224.031 98.9375L177.531 98.9375ZM224.125 123.156C228.921 123.215 232.152 123.471 233.812 123.938C235.473 124.404 236.811 125.535 237.844 127.312C238.877 129.091 239.406 132.194 239.406 136.625C239.406 145.02 238.785 150.128 237.531 151.906C236.277 153.685 233.356 154.562 228.781 154.562C227.675 154.562 226.117 154.598 224.125 154.656L224.125 123.156ZM224.125 176.688C231.06 176.863 235.346 177.592 236.969 178.875C238.592 180.158 239.406 183.843 239.406 189.906L239.406 203.094C239.406 208.807 238.495 212.386 236.688 213.844C234.88 215.301 230.691 216.138 224.125 216.312L224.125 176.688ZM301.375 98.9375L301.375 240.531L347.406 240.531L347.406 98.9375L301.375 98.9375ZM530.031 122.375C519.775 122.375 510.708 123.943 502.812 127.062C494.917 130.182 489.216 134.672 485.75 140.531C482.281 146.391 480.562 154.387 480.562 164.531L480.562 198.375C480.563 207.004 481.326 213.575 482.875 218.094C484.424 222.612 487.197 226.739 491.219 230.5C495.238 234.261 500.895 237.218 508.125 239.375C515.355 241.532 523.68 242.625 533.125 242.625C542.864 242.625 550.949 241.53 557.406 239.344C563.863 237.158 569.2 233.873 573.406 229.5C577.61 225.127 580.293 221.035 581.438 217.188C582.579 213.34 583.156 207.827 583.156 200.656L583.156 192.062L540.75 192.062L540.75 207.375C540.75 213.147 540.176 217.051 539.031 219.062C537.89 221.074 535.642 222.062 532.25 222.062C529.518 222.062 527.648 221.328 526.688 219.812C525.73 218.297 525.25 214.903 525.25 209.656L525.25 184.562L583.156 184.562L583.156 169.156C583.156 157.904 581.501 149.178 578.219 142.969C574.937 136.76 569.214 131.792 561.062 128.031C552.908 124.271 542.573 122.375 530.031 122.375ZM532.125 142.938C534.634 142.937 536.282 143.813 537.094 145.562C537.905 147.312 538.312 151.183 538.312 157.188L538.312 165.656L525.25 165.656L525.25 157.188C525.25 150.658 525.635 146.643 526.375 145.156C527.112 143.67 529.027 142.938 532.125 142.938ZM640.688 122.375C630.874 122.375 622.258 123.578 614.844 125.969C607.427 128.359 602.191 131.754 599.094 136.156C595.993 140.558 594.438 147.386 594.438 156.656C594.437 163.186 595.872 168.842 598.75 173.594C601.628 178.345 609.619 183.639 622.75 189.469C638.393 196.348 647.084 200.476 648.781 201.875C650.404 203.274 651.219 206.743 651.219 212.281C651.219 216.304 650.567 218.934 649.312 220.188C648.058 221.441 645.859 222.062 642.688 222.062C639.735 222.062 637.746 221.147 636.75 219.281C635.754 217.416 635.281 213.363 635.281 207.125L635.281 199.781L595.656 199.781L595.656 205.375C595.656 215.053 597.161 222.282 600.188 227.062C603.211 231.843 608.764 235.639 616.844 238.438C624.921 241.236 634.638 242.625 646 242.625C656.256 242.625 665.013 241.313 672.281 238.719C679.55 236.124 684.743 232.435 687.844 227.625C690.941 222.815 692.5 215.695 692.5 206.25C692.5 197.796 690.464 191.337 686.406 186.906C682.348 182.475 673.829 177.764 660.844 172.75C651.105 168.96 644.665 166.076 641.531 164.094C638.395 162.112 636.502 160.287 635.875 158.625C635.248 156.964 634.938 154.369 634.938 150.812C634.937 148.189 635.558 146.218 636.812 144.906C638.067 143.594 639.96 142.938 642.469 142.938C645.566 142.938 647.505 143.634 648.281 145.062C649.054 146.491 649.438 149.886 649.438 155.25L649.438 161.562L689.062 161.562L689.062 154.812C689.063 148.982 688.682 144.709 687.906 141.969C687.133 139.228 684.901 136.269 681.25 133.062C677.596 129.856 672.357 127.266 665.531 125.312C658.706 123.359 650.426 122.375 640.688 122.375ZM362.812 124.469L362.812 202.75C362.813 212.72 363.045 219.366 363.562 222.719C364.08 226.071 365.398 229.316 367.5 232.406C369.605 235.496 372.855 237.947 377.281 239.812C381.708 241.678 387.285 242.625 394 242.625C399.901 242.625 405.12 241.641 409.656 239.688C414.196 237.734 418.024 234.812 421.125 230.906L420.344 240.531L465.844 240.531L465.844 124.469L421.125 124.469L421.125 202.562C421.125 212.066 420.815 217.688 420.188 219.438C419.56 221.187 417.571 222.062 414.25 222.062C411.152 222.063 409.264 221.222 408.562 219.531C407.861 217.841 407.5 212.474 407.5 203.438L407.5 124.469L362.812 124.469ZM178.125 263.062L178.125 442.031C178.125 451.669 177.854 458.178 177.312 461.531C176.771 464.885 174.736 467.696 171.219 470C167.702 472.307 162.9 473.469 156.812 473.469C154.513 473.469 150.796 473.315 145.656 473L145.656 517.469L188.469 517.469C207.407 517.469 221.567 516.344 230.969 514.094C240.37 511.84 247.803 507.774 253.281 501.906C258.76 496.041 261.855 489.468 262.531 482.188C263.208 474.907 263.531 458.553 263.531 433.094L263.531 263.062L178.125 263.062ZM503.594 263.062L503.594 517.469L580.281 517.469L585.562 501.75C592.462 508.245 600.057 513.129 608.375 516.375C616.696 519.624 625.676 521.25 635.281 521.25C648.674 521.25 660.23 518.5 669.969 513C679.707 507.5 685.894 500.991 688.531 493.5C691.171 486.009 692.5 474.607 692.5 459.312L692.5 365.344C692.5 349.942 692.033 339.901 691.156 335.188C690.276 330.473 687.672 325.643 683.344 320.719C679.015 315.795 672.752 311.974 664.5 309.25C656.248 306.526 646.509 305.156 635.281 305.156C625.542 305.156 616.505 306.671 608.188 309.656C599.867 312.642 592.329 317.174 585.562 323.25L585.562 263.062L503.594 263.062ZM597.531 342.094C602.674 342.094 606.115 343.731 607.875 347.031C609.632 350.331 610.5 357.396 610.5 368.188L610.5 456.031C610.5 468.392 609.742 476.191 608.188 479.438C606.633 482.687 603.265 484.312 598.125 484.312C593.122 484.313 589.782 482.736 588.094 479.594C586.402 476.452 585.562 469.273 585.562 458.062L585.562 368.188C585.562 356.558 586.295 349.287 587.781 346.406C589.271 343.526 592.528 342.094 597.531 342.094ZM383.062 305.156C359.931 305.156 341.131 308.514 326.656 315.219C312.182 321.923 302.522 329.659 297.719 338.406C292.917 347.155 290.531 359.586 290.531 375.719L290.531 389.719L367.438 389.719L367.438 367.875C367.438 356.249 368.116 349.027 369.469 346.25C370.821 343.473 374.265 342.094 379.812 342.094C384.682 342.094 388.154 343.731 390.25 347.031C392.346 350.331 393.406 357.449 393.406 368.344C393.406 377.039 392.459 382.798 390.562 385.625C388.669 388.455 374.262 393.953 347.344 402.125C322.182 409.667 306.42 416.249 300.062 421.906C293.705 427.563 290.531 438.203 290.531 453.812L290.531 470.938C290.531 491.994 296.497 505.641 308.469 511.875C320.44 518.109 333.597 521.25 347.938 521.25C358.895 521.25 368.337 519.375 376.25 515.656C384.164 511.937 390.619 506.375 395.625 498.938L395.625 517.469L475.375 517.469L475.375 412.812C475.375 378.346 473.967 355.581 471.125 344.531C468.283 333.478 459.817 324.158 445.75 316.562C431.683 308.967 410.792 305.156 383.062 305.156ZM393.406 418.312L393.406 461.219C393.406 471.695 392.617 478.161 391.062 480.625C389.508 483.086 386.174 484.312 381.031 484.312C375.621 484.313 371.982 482.736 370.156 479.594C368.328 476.452 367.437 469.476 367.438 458.688C367.437 449.258 368.467 442.027 370.562 437C372.661 431.97 380.284 425.75 393.406 418.312Z" fill="#1c3ba9" fill-rule="nonzero" opacity="1" stroke="none"/>
</g>
</svg>
